inDegrees=no
num_controls=7
num_derivatives=13
num_iterations=244
num_multipliers=7
num_parameters=0
num_slacks=7
num_states=26
objective=6.354563
objective_accelerations=0.578201
objective_balance=0.067256
objective_effort=0.507857
objective_height=5.152883
objective_ligament=0.048366
solver_duration=2078.657524
status=Solve_Succeeded
success=true
DataType=double
version=3
OpenSimVersion=4.4-2022-07-23-0e9fedc
endheader
time	/jointset/ground_pelvis/pelvis_tilt/value	/jointset/ground_pelvis/pelvis_tx/value	/jointset/ground_pelvis/pelvis_ty/value	/jointset/hip_r/hip_flexion_r/value	/jointset/hip_r/hip_adduction_r/value	/jointset/hip_r/hip_rotation_r/value	/jointset/back/lumbar_extension/value	/jointset/patellofemoral_r/patellar_flexion_r/value	/jointset/knee_r/knee_flexion_r/value	/jointset/knee_r/knee_adduction_r/value	/jointset/knee_r/knee_rotation_r/value	/jointset/ankle_r/ankle_angle_r/value	/jointset/subtalar_r/subtalar_angle_r/value	/jointset/ground_pelvis/pelvis_tilt/speed	/jointset/ground_pelvis/pelvis_tx/speed	/jointset/ground_pelvis/pelvis_ty/speed	/jointset/hip_r/hip_flexion_r/speed	/jointset/hip_r/hip_adduction_r/speed	/jointset/hip_r/hip_rotation_r/speed	/jointset/back/lumbar_extension/speed	/jointset/patellofemoral_r/patellar_flexion_r/speed	/jointset/knee_r/knee_flexion_r/speed	/jointset/knee_r/knee_adduction_r/speed	/jointset/knee_r/knee_rotation_r/speed	/jointset/ankle_r/ankle_angle_r/speed	/jointset/subtalar_r/subtalar_angle_r/speed	/forceset/tau_hip_flexion_r	/forceset/tau_hip_adduction_r	/forceset/tau_hip_rotation_r	/forceset/tau_knee_flexion_r	/forceset/tau_ankle_angle_r	/forceset/tau_subtalar_angle_r	/forceset/tau_lumbar_extension	lambda_cid13_p0	lambda_cid14_p0	lambda_cid14_p1	lambda_cid14_p2	lambda_cid14_p3	lambda_cid14_p4	lambda_cid14_p5	/jointset/ground_pelvis/pelvis_tilt/accel	/jointset/ground_pelvis/pelvis_tx/accel	/jointset/ground_pelvis/pelvis_ty/accel	/jointset/hip_r/hip_flexion_r/accel	/jointset/hip_r/hip_adduction_r/accel	/jointset/hip_r/hip_rotation_r/accel	/jointset/back/lumbar_extension/accel	/jointset/patellofemoral_r/patellar_flexion_r/accel	/jointset/knee_r/knee_flexion_r/accel	/jointset/knee_r/knee_adduction_r/accel	/jointset/knee_r/knee_rotation_r/accel	/jointset/ankle_r/ankle_angle_r/accel	/jointset/subtalar_r/subtalar_angle_r/accel	gamma_cid13_p0	gamma_cid14_p0	gamma_cid14_p1	gamma_cid14_p2	gamma_cid14_p3	gamma_cid14_p4	gamma_cid14_p5
0.5	-0.1607194984722115	0.03219843651901587	0.8340358469113622	0.8515731986329725	-0.2453558958239691	-0.08953348940389802	-0.3252289332620471	0.7954797937076705	0.7954797937076907	0.07024892332523133	0.1745323758456851	0.2740034007343984	0.03824029218277879	-0.4278044969316523	-0.1366197674658766	-0.445779296051559	1.851151024355662	-0.02093306329262419	0.3991697793276271	-0.5979101509387603	1.943799240437316	1.943799240437313	-0.1845013236810207	-7.612139604690849e-06	0.6122652294810904	0.1306427587154008	-0.1159484798223595	-0.01909561313166527	0.01486628828285847	-0.3453044913753936	0.05979340825021605	-0.007953484194060114	0.1614188445787617	-25.67104692591449	-22.40156137304945	-3.478177747706308	-3.438393045217663	3.845736911740689	-662.6085532303832	59.97101284861829	0.2161305642874921	0.3666803576152077	-0.4500810252256531	-1.041942635371784	0.1183086708100721	-0.4191117098413565	1.474711705197536	-1.383823374292384	-1.383823374292383	0.4336424745700137	-0.03152571118042893	-0.6579811517194972	0.07143803415967113	-1.600101912626083e-07	-1.036628929248201e-07	1.59822150788472e-06	-7.738639689107176e-07	-1.136317672819932e-07	-1.861329436038417e-07	1.118501826181582e-06
0.51	-0.1649859326032125	0.03085076041456786	0.8295565615564776	0.8700296681364997	-0.2455600712229848	-0.08556370815282478	-0.331133780238563	0.814845753819201	0.8148457538192085	0.0684266689840923	0.1745322675943136	0.280092017245826	0.03954900908271044	-0.4254224920779447	-0.1328997668040876	-0.4499762771349634	1.839890541092404	-0.01990420717011927	0.3947572110381856	-0.5829887084634744	1.929122840894928	1.92912284089492	-0.1799500642841951	-9.883264336437613e-06	0.6053731803236568	0.1310776212731389	-0.1224317318349788	-0.01752514802495959	0.01527246484813609	-0.3487693539702584	0.05608313802199132	-0.006828500991164509	0.1671885314393688	-24.46007286795665	-23.77547780283916	-3.328035354368966	-3.350532918420138	4.321808954972846	-666.9646885341427	60.16946531284828	0.2582005247425408	0.3769907289498554	-0.3893172748505347	-1.205963976280704	0.09484761810311404	-0.4569300619846674	1.511440903832596	-1.550008277512832	-1.550008277513606	0.4659843452137577	0.01592758170996558	-0.717586774014962	0.02621433301946966	-1.510163766110694e-07	-9.813763888273343e-08	1.495763305447335e-06	-7.410569624485865e-07	-1.081696920441068e-07	-1.687168008584577e-07	1.052265622039586e-06
0.52	-0.1692267536699101	0.02954075047843552	0.8250383442657682	0.8883659602465002	-0.245754023353747	-0.08163897271934467	-0.3368872967132984	0.8340568579286456	0.8340568579286428	0.06664995057151434	0.1745322377106443	0.2861091592704275	0.04086141540150733	-0.4226818840710302	-0.129086533802743	-0.4535656832164778	1.827115545650026	-0.01888840964232117	0.3901606158091795	-0.5676440505826487	1.912828040020508	1.912828040020495	-0.1753941379683742	8.061404111565096e-06	0.5979703321158361	0.1313806424884215	-0.1289149838475899	-0.01595468291824709	0.01567864141345086	-0.3522342165651228	0.05237286779376853	-0.005703517788259883	0.1729582182999821	-23.24119140734987	-25.15522814179203	-3.173666826927265	-3.269340867103447	4.796089954834708	-671.4180756089422	60.43312587366331	0.2878511949288446	0.3853268255263343	-0.3285660248476951	-1.344845071195971	0.1156969518687081	-0.455917097754288	1.55935478630547	-1.707503640698858	-1.70750364069886	0.4345758583690736	-0.02748255254448007	-0.7601409617969715	0.04506976566860066	-1.41828779032585e-07	-9.233025859289306e-08	1.395233598091047e-06	-7.048502547539233e-07	-1.026083238385069e-07	-1.530570589442748e-07	9.856282153013372e-07
0.53	-0.173438452145488	0.02826929221754429	0.8204872982238023	0.9065671334953274	-0.2459378233863005	-0.07776096486563695	-0.3424853331679412	0.8530971084745741	0.8530971084745702	0.06491870659030483	0.1745323221393391	0.2920498282766195	0.04217627169242853	-0.4196014080785551	-0.1251936346343606	-0.4565384430183058	1.812876708066068	-0.0178738249465345	0.3854147096351696	-0.5519048117626072	1.894965101824533	1.894965101824523	-0.1708572266012212	1.071985227133053e-05	0.5900858481869443	0.1315681141863109	-0.1352580594194197	-0.01447846420246313	0.01606179129696657	-0.3558302876481775	0.04887645590903898	-0.004729472030745223	0.1785985051698956	-22.01758963787199	-26.4761524845444	-3.083610226809364	-3.167547021021855	5.257982672599042	-675.907561504288	60.6079879517099	0.3265963188108841	0.3929740862185486	-0.2658976004375815	-1.499774022175163	0.0939975818300802	-0.4880523584829765	1.589972717341479	-1.864206609537741	-1.864206609537375	0.4630330002403208	0.01432001225434263	-0.8142769127780219	0.002341200893053815	-1.334179478825318e-07	-8.872960380338954e-08	1.2982408396514e-06	-6.770528957108699e-07	-9.480780256978073e-08	-1.43367090046327e-07	9.221999794373759e-07
0.54	-0.1776176557576601	0.02703710347308172	0.8159096712553008	0.9246186441842805	-0.2461115459012154	-0.07393124106992133	-0.3479242243768857	0.8719510260984422	0.87195102609844	0.06323278856763465	0.1745324691462759	0.2979093174826542	0.04349235376613754	-0.4161829113899165	-0.121232630517012	-0.4588818685236316	1.797183033674932	-0.01687290611489393	0.3805038042108146	-0.5358150014430452	1.875561455608918	1.87556145560891	-0.1663289462599933	2.057705075546527e-05	0.5817343720843425	0.1316257990459591	-0.1416011349912394	-0.01300224548667058	0.01644494118052481	-0.359426358731232	0.0453800440243116	-0.003755426273218953	0.1842387920398172	-20.79287708261389	-27.80350943681868	-2.989876614540334	-3.071826137157589	5.719731759689552	-680.5017746927365	60.84424053611722	0.3554553341615649	0.3989478153195733	-0.2026991655472819	-1.635812432631642	0.1129637790395035	-0.4889169478232624	1.629469086209585	-2.015645244626945	-2.015645244626942	0.4328496531840573	-0.02604280247965253	-0.8535393965390052	0.0191123980203851	-1.258665178873389e-07	-8.75704325461736e-08	1.205161301289742e-06	-6.585594968781084e-07	-8.452992046525519e-08	-1.402819764003844e-07	8.623223156045414e-07
0.55	-0.1817610075812495	0.02584481930230472	0.8113117932845717	0.9425060373347421	-0.2462752828129329	-0.07015130755185965	-0.3532006163406992	0.8906033133927185	0.8906033133927278	0.06159206240820891	0.1745326022182685	0.3036830322662707	0.04480841487800048	-0.4124343613027174	-0.1172167709480963	-0.4605857453029931	1.780061647698658	-0.01587711464513617	0.3754565108764029	-0.5194169634381794	1.854650399920579	1.854650399920576	-0.1618208694285462	8.133016497256996e-06	0.5729375283882129	0.1315636907746023	-0.1477879454033304	-0.01169117379751058	0.01681074327721188	-0.3631354116145965	0.04206183973335351	-0.002865344568123628	0.1897301989467085	-19.57311751834163	-29.07890401458917	-2.926628617879555	-2.967683017812087	6.175979960542109	-685.0974023524368	61.0579367545888	0.3925093607242716	0.4040041464574137	-0.1380626060860106	-1.78540500534535	0.09247150929376059	-0.5167636886493531	1.651935339834532	-2.16565188038215	-2.165651880381426	0.4592447247801384	0.01137066341666788	-0.9034432047358919	-0.02217690917881898	-1.178010484445514e-07	-8.435721253231891e-08	1.11246754921914e-06	-6.309481201024831e-07	-7.619997390356333e-08	-1.332740191121747e-07	8.000709379297503e-07
